<?xml version="1.0" standalone="no"?>
<!DOCTYPE svg PUBLIC "-//W3C//DTD SVG 20010904//EN"
 "http://www.w3.org/TR/2001/REC-SVG-20010904/DTD/svg10.dtd">
<svg version="1.0" xmlns="http://www.w3.org/2000/svg"
 width="512.000000pt" height="512.000000pt" viewBox="0 0 512.000000 512.000000"
 preserveAspectRatio="xMidYMid meet">
<metadata>
Created by potrace 1.14, written by Peter Selinger 2001-2017
</metadata>
<g transform="translate(0.000000,512.000000) scale(0.100000,-0.100000)"
fill="#000000" stroke="none">
<path d="M0 3739 l0 -1382 213 8 c116 4 235 7 264 6 42 -1 54 3 63 18 7 14 8
254 4 764 -4 625 -3 745 9 755 8 7 68 12 158 14 l144 3 2 93 c1 52 4 96 7 99
3 4 136 8 296 11 l290 5 6 -31 c6 -31 21 -50 59 -77 17 -12 17 -14 3 -15 -9 0
-31 12 -49 27 l-32 27 8 -25 c3 -13 18 -34 32 -45 14 -12 23 -27 19 -33 -4 -6
-3 -19 3 -28 6 -13 5 -24 -5 -37 -13 -18 -14 -18 -41 -1 -23 14 -22 11 9 -19
l36 -36 -14 -55 c-12 -44 -13 -75 -4 -158 5 -56 17 -234 25 -396 9 -162 18
-298 21 -303 3 -5 10 -5 16 -2 6 4 5 -3 -2 -15 -9 -18 -17 -21 -40 -16 -33 7
-70 -1 -70 -16 0 -6 5 -7 11 -4 5 4 32 -13 59 -37 81 -72 110 -91 114 -76 58
221 79 393 45 372 -12 -7 -12 -7 12 61 26 75 30 83 74 135 42 51 38 67 -5 22
-33 -35 -78 -48 -47 -14 10 10 17 22 17 26 0 5 16 30 35 56 40 55 43 65 15 50
-22 -12 -27 -1 -8 18 7 7 15 45 18 85 6 68 10 79 61 152 30 43 61 81 69 85 8
4 29 15 47 24 17 9 35 15 40 14 16 -4 95 14 121 28 15 8 38 14 52 14 13 0 60
18 105 40 89 44 167 60 292 60 64 0 85 4 99 17 9 10 36 26 58 36 l41 19 -55
18 c-129 42 -192 88 -249 183 -23 37 -41 70 -41 73 0 13 31 35 40 29 6 -4 24
-34 42 -68 39 -78 87 -137 130 -160 l33 -18 -28 21 c-15 12 -32 31 -38 42 -9
17 -4 15 27 -8 34 -26 36 -27 25 -6 -6 12 -16 22 -21 22 -6 0 -10 7 -10 16 0
14 4 14 33 -3 36 -22 59 -20 50 4 -5 12 -2 15 10 10 12 -4 14 -2 10 11 -6 15
-5 15 10 3 15 -12 17 -11 17 3 0 20 33 21 50 1 18 -22 44 -20 35 3 -4 9 -10
28 -12 42 -4 23 -3 23 8 6 9 -15 13 -16 20 -5 6 11 15 7 40 -16 30 -28 32 -19
3 15 -7 9 -21 34 -29 55 l-17 40 42 -42 c23 -24 46 -43 51 -43 12 0 11 17 -1
25 -6 4 -8 10 -5 15 3 5 1 18 -4 29 -8 14 -7 22 4 31 20 17 32 6 39 -36 10
-48 38 -97 97 -164 50 -57 51 -77 1 -41 -16 11 -48 23 -72 27 -39 6 -42 6 -32
-12 6 -10 20 -26 31 -34 12 -8 21 -18 21 -23 0 -5 -15 2 -34 17 -35 26 -56 33
-56 18 0 -10 -41 -9 -58 2 -7 4 -16 5 -19 2 -4 -3 -21 6 -40 20 -18 14 -33 21
-33 17 0 -5 11 -17 25 -27 14 -10 25 -22 25 -27 0 -13 -56 -20 -83 -10 -22 9
-25 8 -20 -6 5 -13 2 -15 -11 -10 -11 4 -15 3 -11 -4 4 -6 12 -8 19 -6 7 3 23
-1 37 -9 33 -18 53 -18 45 2 -4 11 -1 14 12 10 9 -3 44 -7 77 -10 33 -3 114
-19 180 -36 66 -16 129 -30 141 -30 11 0 24 -3 28 -7 7 -7 55 -26 125 -48 24
-8 54 -24 67 -36 13 -12 24 -17 24 -11 0 7 9 12 20 12 14 0 18 5 13 16 -5 14
-1 16 30 10 29 -5 43 -2 67 16 17 12 47 23 67 25 41 2 53 11 33 23 -12 7 -11
12 5 30 18 20 18 21 -1 41 -19 18 -22 19 -53 3 -28 -14 -31 -20 -26 -45 l7
-29 -63 0 c-60 0 -61 1 -46 18 21 23 21 32 2 32 -22 0 -18 18 5 25 17 5 18 10
9 27 -6 12 -7 18 -1 14 9 -5 22 14 22 34 0 4 -18 6 -40 3 -22 -3 -40 -1 -40 4
0 5 16 24 35 43 34 33 48 59 23 44 -7 -5 -9 -1 -6 13 5 18 2 19 -34 13 -34 -7
-41 -4 -58 18 l-20 25 -15 -38 c-13 -30 -18 -35 -30 -25 -8 7 -15 28 -15 46 0
23 -5 34 -14 34 -8 0 -16 8 -19 18 -3 12 -8 7 -20 -20 -12 -26 -22 -36 -32
-32 -8 4 -15 12 -15 20 0 19 -16 18 -24 -1 -9 -24 -39 -17 -65 16 l-25 31 -13
-44 c-7 -23 -10 -56 -7 -73 l5 -30 -20 29 c-11 16 -27 50 -37 75 -16 42 -18
44 -27 23 -6 -12 -14 -22 -19 -22 -13 0 -9 24 7 46 17 22 20 54 5 54 -5 0 -10
-9 -10 -19 0 -18 -17 -38 -24 -30 -2 2 -6 21 -9 42 -5 30 -2 39 11 44 9 4 20
11 24 17 4 7 16 2 30 -12 l24 -22 0 36 c0 23 6 41 18 49 9 7 13 16 8 19 -6 3
-24 27 -41 54 -18 26 -66 82 -108 125 -69 71 -77 76 -93 62 -25 -23 -37 -18
-44 18 l-7 32 -29 -35 c-26 -31 -29 -33 -30 -13 0 12 -4 24 -9 27 -5 3 -6 20
-2 36 8 41 51 68 83 53 13 -6 36 -14 52 -19 37 -11 77 -61 58 -73 -10 -6 -7
-15 13 -39 15 -18 31 -32 36 -32 14 0 10 26 -6 40 -8 7 -15 20 -15 30 0 18 62
80 80 80 18 0 126 -69 150 -96 18 -20 13 -18 -19 9 -45 37 -102 50 -116 27 -3
-5 -17 -10 -31 -10 -22 0 -19 -5 28 -46 50 -44 108 -117 108 -136 0 -4 -5 -8
-10 -8 -11 0 16 -59 43 -94 13 -18 16 -17 42 27 15 26 30 47 35 47 4 0 7 8 6
17 0 11 14 25 39 38 31 17 49 20 85 14 25 -4 48 -5 52 -3 4 3 0 20 -8 40 -8
19 -12 39 -9 44 15 25 87 1 103 -35 8 -18 6 -25 -9 -38 -10 -9 -19 -23 -19
-31 0 -20 -30 -43 -38 -29 -9 14 -92 28 -92 15 0 -5 20 -13 44 -16 26 -4 47
-13 50 -23 5 -12 15 -14 51 -8 45 6 75 -7 75 -34 0 -5 9 -12 19 -16 22 -7 68
-51 83 -80 8 -15 4 -14 -19 8 -32 29 -63 36 -63 12 0 -8 -6 -12 -12 -10 -7 3
-31 -13 -52 -35 -36 -37 -38 -40 -17 -40 13 0 37 -10 53 -22 21 -14 45 -21 74
-20 37 0 48 -5 74 -34 31 -35 39 -64 19 -64 -7 0 -18 8 -25 17 -16 23 -29 11
-15 -15 6 -12 11 -30 11 -41 0 -21 4 -21 238 -22 218 0 342 -5 350 -14 7 -7
11 -44 11 -136 1 -60 6 -101 14 -112 9 -12 36 -18 107 -22 145 -9 135 -3 138
-85 2 -45 -1 -77 -9 -86 -6 -8 -7 -14 -2 -14 5 0 10 -20 9 -45 0 -74 5 -75
254 -74 118 1 232 4 253 6 l37 5 0 739 0 739 -2560 0 -2560 0 0 -1381z m2551
1155 c112 -76 131 -113 98 -190 -10 -25 -19 -57 -19 -70 0 -47 -18 -23 -30 41
-20 106 -109 225 -168 225 -20 0 -20 -1 -6 -45 14 -41 14 -46 -3 -69 -24 -34
-30 -32 -25 9 3 21 0 35 -7 35 -6 0 -11 -9 -11 -19 0 -25 -10 -51 -20 -51 -4
0 -10 15 -14 32 -5 24 -1 40 14 60 11 15 20 32 20 37 0 16 52 40 86 41 20 0
51 -13 85 -36z m-319 -54 c10 0 41 -22 69 -49 46 -44 50 -53 48 -87 -1 -22 -5
-43 -8 -49 -3 -5 -4 -23 -2 -39 1 -16 -2 -32 -9 -36 -8 -5 -7 -12 5 -24 29
-28 8 -30 -22 -2 -15 14 -31 26 -35 26 -4 0 -12 15 -17 33 l-9 32 -7 -34 c-13
-56 -28 -10 -19 57 14 106 -2 157 -40 129 -17 -13 -18 -15 -1 -46 10 -20 13
-37 8 -42 -11 -11 -53 26 -53 46 0 28 -19 15 -28 -17 -9 -32 -4 -57 5 -30 3 6
11 12 19 12 8 0 14 -6 14 -12 0 -7 3 -24 7 -37 5 -22 4 -23 -24 -17 -25 6 -31
4 -36 -14 -5 -21 -61 -50 -95 -50 -11 0 -26 8 -33 17 -13 15 -12 16 9 11 12
-4 38 -2 56 3 31 9 35 13 41 58 8 59 36 107 75 129 16 9 31 26 34 37 4 16 8
17 18 7 6 -6 20 -12 30 -12z m308 -88 c0 -7 -16 -33 -35 -56 -38 -46 -46 -94
-20 -116 12 -10 13 -7 6 17 -7 25 -3 34 34 75 23 26 45 44 49 41 3 -4 6 -29 6
-57 1 -49 7 -70 45 -164 10 -23 15 -45 12 -48 -13 -13 -79 20 -127 63 -93 84
-104 140 -40 209 22 24 40 54 40 66 1 22 1 22 15 4 8 -11 15 -26 15 -34z m282
-49 c21 -19 23 -33 6 -33 -7 0 -18 11 -25 25 -13 29 -7 32 19 8z m-87 -46 c-4
-15 -1 -28 9 -36 11 -9 16 -30 16 -62 0 -27 -2 -49 -4 -49 -3 0 -18 13 -34 29
-40 41 -45 68 -21 108 24 38 42 44 34 10z m55 -24 c0 -13 -3 -13 -15 -3 -8 7
-12 16 -9 21 8 13 24 1 24 -18z m232 -15 c12 -14 15 -24 8 -28 -6 -4 -12 -17
-13 -28 -2 -31 -24 -27 -42 8 -19 36 -11 57 13 38 13 -11 15 -10 10 10 -8 28
-1 28 24 0z m-1105 -13 c29 -20 20 -39 -15 -30 -22 5 -24 4 -13 -9 14 -17 7
-36 -13 -36 -7 0 -23 11 -36 25 -26 27 -49 32 -68 13 -17 -17 -15 -59 3 -85
10 -14 12 -24 5 -28 -16 -10 -29 3 -39 42 -11 40 4 81 39 106 28 20 108 21
137 2z m998 -45 c19 -37 19 -50 0 -50 -8 0 -15 -8 -15 -17 0 -13 -3 -14 -12
-5 -20 20 -28 14 -18 -14 13 -33 13 -34 -5 -34 -20 0 -65 47 -65 70 0 24 21
31 42 13 15 -13 16 -13 11 7 -4 16 1 28 18 41 13 10 25 19 26 19 1 0 9 -13 18
-30z m45 5 c0 -8 -4 -15 -10 -15 -5 0 -10 7 -10 15 0 8 5 15 10 15 6 0 10 -7
10 -15z m-1147 -62 c4 -18 3 -34 -2 -37 -10 -6 -32 64 -24 77 8 13 20 -4 26
-40z m-95 -53 c7 -11 8 -20 3 -20 -6 0 -13 5 -16 10 -9 15 -25 12 -25 -5 0 -8
5 -15 10 -15 16 0 11 -27 -6 -34 -27 -11 -51 -7 -75 13 l-23 18 50 26 c61 31
66 32 82 7z m-138 -20 c0 -5 -9 -10 -19 -10 -33 0 -31 -15 5 -44 20 -15 33
-30 31 -33 -7 -7 -50 17 -64 36 -11 14 -12 13 -13 -6 0 -32 54 -89 92 -98 23
-5 28 -9 15 -12 -10 -3 -31 0 -47 6 -17 5 -30 6 -30 2 0 -5 11 -12 25 -15 14
-4 25 -10 25 -15 0 -11 -49 -11 -56 0 -8 14 -37 11 -31 -3 19 -46 19 -48 3
-48 -9 0 -16 -4 -16 -10 0 -5 -10 -14 -21 -21 -20 -10 -21 -9 -15 14 3 15 11
39 18 54 6 15 10 55 9 89 -2 53 1 64 24 92 25 30 65 44 65 22z m979 -106 c22
-27 28 -54 13 -54 -11 0 -36 28 -51 58 -17 33 12 30 38 -4z m-128 -126 c11
-11 22 -18 26 -14 4 4 1 11 -7 16 -8 5 -11 13 -6 17 5 4 13 0 20 -11 6 -10 26
-32 43 -49 18 -16 30 -34 27 -38 -3 -5 2 -9 10 -9 8 0 18 -4 21 -10 4 -6 -7
-10 -26 -10 -26 0 -43 11 -91 60 -32 33 -58 62 -58 65 0 13 24 3 41 -17z
m-127 -37 c12 -13 14 -21 6 -26 -9 -6 -50 28 -50 42 0 11 29 0 44 -16z m-727
-66 c-32 -28 -72 -33 -81 -9 -8 22 -8 26 3 20 5 -4 20 -2 33 3 12 6 34 10 48
10 l25 0 -28 -24z m873 15 c0 -5 -2 -10 -4 -10 -3 0 -8 5 -11 10 -3 6 -1 10 4
10 6 0 11 -4 11 -10z"/>
<path d="M2300 4600 c0 -5 5 -10 10 -10 6 0 10 5 10 10 0 6 -4 10 -10 10 -5 0
-10 -4 -10 -10z"/>
<path d="M2450 4155 c0 -6 56 -35 67 -35 13 1 -41 40 -54 40 -7 0 -13 -2 -13
-5z"/>
<path d="M3310 4587 c-44 -23 -69 -53 -33 -41 15 6 16 4 6 -7 -20 -21 -15 -34
6 -15 10 9 25 14 33 11 8 -3 33 8 56 25 23 16 47 30 54 30 9 0 8 3 -2 10 -25
16 -75 11 -120 -13z"/>
<path d="M3423 4550 c-13 -5 -23 -14 -23 -20 0 -13 -1 -13 45 10 40 20 22 28
-22 10z"/>
<path d="M3461 4511 c-28 -8 -69 -57 -56 -68 4 -5 10 -2 12 5 6 17 23 15 23
-3 0 -24 27 -18 49 11 23 30 28 65 9 63 -7 -1 -24 -4 -37 -8z"/>
<path d="M3655 4250 c-3 -5 1 -10 10 -10 9 0 13 5 10 10 -3 6 -8 10 -10 10 -2
0 -7 -4 -10 -10z"/>
<path d="M3600 4240 c0 -5 4 -10 9 -10 6 0 13 5 16 10 3 6 -1 10 -9 10 -9 0
-16 -4 -16 -10z"/>
<path d="M3530 4080 c0 -5 6 -10 14 -10 8 0 18 5 21 10 3 6 -3 10 -14 10 -12
0 -21 -4 -21 -10z"/>
<path d="M3736 3978 c4 -6 -1 -8 -14 -4 -22 7 -62 -8 -62 -23 0 -5 14 -11 30
-14 17 -4 30 -11 30 -17 0 -7 -8 -9 -22 -5 -16 6 -20 4 -15 -9 8 -21 -8 -29
-23 -11 -16 19 -30 19 -30 1 0 -19 33 -38 105 -61 33 -11 63 -24 67 -30 13
-17 9 -28 -6 -16 -8 7 -37 13 -65 15 l-50 2 28 -26 c39 -35 57 -70 36 -70 -8
0 -15 -5 -15 -10 0 -6 -8 -5 -20 2 -33 21 -35 0 -3 -29 33 -30 70 -83 58 -83
-4 0 -19 9 -33 21 l-27 21 -3 -21 c-2 -12 -8 -21 -13 -21 -5 0 -7 -26 -5 -57
l4 -58 -23 45 c-12 25 -30 79 -38 120 -9 41 -21 89 -27 105 -16 44 -73 125
-87 125 -7 0 -13 4 -13 9 0 5 -9 11 -20 14 -11 3 -20 4 -20 3 0 -1 20 -28 45
-61 44 -59 62 -97 125 -265 46 -123 55 -160 43 -179 -10 -16 -9 -143 1 -238 8
-65 -9 -79 -18 -15 -7 47 -30 91 -42 79 -4 -4 3 -42 14 -86 16 -58 22 -110 23
-197 1 -106 2 -112 9 -59 5 33 16 94 25 135 10 41 21 102 25 135 11 81 18 100
89 247 76 159 79 195 26 299 -31 60 -33 69 -17 69 10 0 31 -14 48 -31 16 -17
38 -35 49 -41 11 -6 4 6 -17 28 -20 22 -46 61 -57 87 -11 26 -37 63 -58 82
-31 28 -35 36 -24 49 7 8 10 19 7 25 -3 5 -1 11 6 13 7 3 2 7 -10 10 -14 4
-20 2 -16 -4z m63 -372 c-3 -3 -11 5 -18 17 -13 21 -12 21 5 5 10 -10 16 -20
13 -22z m-66 -99 c20 -49 23 -74 4 -37 -26 52 -36 80 -29 80 4 0 15 -19 25
-43z"/>
<path d="M2235 3760 c-3 -5 -1 -10 4 -10 6 0 11 5 11 10 0 6 -2 10 -4 10 -3 0
-8 -4 -11 -10z"/>
<path d="M2225 3721 c-5 -16 -29 -30 -59 -35 -5 0 -11 -7 -14 -15 -3 -8 0 -11
7 -7 12 8 4 -21 -12 -42 -6 -7 -10 -28 -10 -45 0 -18 -4 -37 -8 -42 -4 -6 -4
-17 2 -25 8 -13 10 -13 19 0 8 12 10 11 10 -6 0 -18 -5 -21 -29 -18 -23 3 -31
-1 -36 -16 -3 -11 -3 -24 0 -30 9 -15 35 -12 35 4 0 7 9 16 20 19 11 3 20 13
20 24 0 15 7 18 47 15 27 -2 59 1 73 7 22 9 19 10 -25 12 -27 1 -53 1 -57 0
-5 0 -8 3 -8 7 0 12 67 42 95 42 26 0 33 18 14 37 -9 9 -7 16 5 29 16 16 15
19 -16 51 -47 49 -65 58 -73 34z"/>
<path d="M2120 3271 c-53 -20 -142 -71 -185 -106 -28 -23 -29 -25 -11 -38 11
-8 16 -19 12 -25 -4 -7 -1 -12 8 -12 9 0 21 9 28 20 7 11 19 20 27 20 11 0 8
-6 -7 -20 -12 -12 -22 -27 -22 -35 0 -19 39 -45 67 -45 33 0 28 -16 -9 -35
-69 -33 -138 -118 -138 -169 0 -28 1 -28 18 -13 10 10 25 17 32 17 7 0 1 -10
-13 -23 -23 -19 -26 -28 -22 -62 3 -21 6 -40 8 -41 1 -2 27 4 57 11 30 8 91
23 135 34 95 23 195 59 195 71 0 5 -15 5 -32 0 -72 -18 -88 -20 -88 -11 0 13
99 67 137 74 66 13 76 -8 44 -91 -12 -29 -18 -64 -15 -88 11 -116 -116 -337
-224 -389 -37 -18 -40 -23 -35 -50 8 -40 31 -85 44 -85 6 0 9 -7 5 -15 -3 -9
0 -15 8 -15 7 0 26 -10 41 -22 22 -17 31 -19 45 -10 14 8 19 8 23 -2 9 -22
-14 -36 -57 -37 -41 0 -41 0 -18 -16 l23 -16 -44 -41 c-25 -23 -54 -49 -66
-59 -19 -15 -21 -25 -17 -70 2 -29 7 -65 11 -80 6 -21 3 -31 -11 -41 -16 -12
-23 -10 -56 25 -36 37 -55 39 -42 5 8 -21 -5 -20 -28 1 -10 9 -20 14 -22 12
-9 -9 10 -123 21 -126 7 -3 20 12 30 31 9 20 20 36 25 36 10 0 10 -3 -2 -34
-6 -16 -6 -26 0 -26 5 0 14 -19 20 -41 9 -31 14 -39 23 -30 15 15 38 14 36 -1
-1 -7 3 -26 9 -41 21 -50 10 -97 -23 -97 -11 0 -45 54 -45 73 0 7 -15 19 -32
28 -17 8 -36 24 -42 34 -6 11 -17 24 -24 30 -7 6 -16 36 -19 68 -6 57 -19 76
-25 35 -6 -40 -23 -28 -52 37 -29 64 -51 84 -69 66 -12 -12 -49 38 -63 84 -8
30 -8 29 -12 -13 -2 -26 5 -64 17 -98 12 -30 21 -65 21 -77 0 -12 17 -43 39
-69 21 -26 43 -67 50 -92 8 -34 24 -58 62 -93 57 -54 73 -81 83 -136 4 -21 18
-54 32 -74 13 -20 24 -39 24 -44 0 -11 133 -109 148 -109 8 0 12 -6 9 -12 -2
-7 5 -23 16 -35 25 -28 31 -80 9 -88 -14 -5 -14 -7 -2 -15 16 -10 23 -70 9
-70 -5 0 -6 -11 -3 -26 5 -18 0 -32 -17 -50 -20 -21 -21 -27 -9 -34 8 -5 12
-12 8 -15 -6 -7 -51 19 -76 42 -7 7 -17 13 -21 13 -10 0 -7 -52 4 -70 5 -9 4
-11 -3 -6 -7 4 -12 1 -12 -8 0 -8 5 -18 11 -21 6 -4 8 -13 5 -20 -3 -8 -1 -28
4 -46 6 -21 6 -37 -1 -45 -7 -9 -5 -23 5 -49 9 -20 15 -39 15 -43 -1 -4 -1 -9
0 -12 1 -3 3 -34 5 -70 4 -63 22 -141 26 -110 1 8 1 42 0 75 -1 56 1 63 32 98
19 20 38 34 42 30 4 -4 11 -1 15 6 12 19 72 -16 64 -37 -5 -10 -1 -13 13 -9
10 4 30 -1 44 -9 24 -15 13 -13 -30 4 -13 5 -13 3 -2 -10 7 -9 24 -19 37 -22
14 -4 26 -12 26 -19 1 -6 3 -22 4 -34 1 -13 8 -29 15 -38 8 -10 9 -19 3 -28
-5 -6 -10 -23 -11 -36 -2 -36 -27 -65 -133 -158 -96 -85 -149 -111 -192 -97
-12 5 -26 7 -31 6 -12 -4 -37 19 -31 28 3 5 -13 34 -35 66 -46 66 -49 77 -17
69 12 -4 35 -2 50 4 20 8 36 6 63 -5 21 -9 40 -12 43 -7 3 5 14 12 24 16 21 8
24 57 2 57 -8 0 -18 12 -21 26 -12 48 -71 182 -95 216 -82 113 -139 277 -164
470 -9 68 -24 166 -35 218 -11 52 -22 121 -26 153 -4 31 -11 57 -17 57 -18 0
-109 -74 -185 -150 -94 -94 -185 -216 -252 -336 -29 -53 -60 -98 -69 -101 -51
-16 -340 -160 -363 -181 -14 -13 -72 -46 -127 -72 -55 -27 -121 -63 -145 -80
-25 -17 -63 -37 -84 -44 -73 -26 -300 -155 -474 -270 l-78 -51 0 -67 0 -68
342 2 342 3 49 60 c27 33 57 77 68 98 19 37 44 56 56 44 6 -6 -25 -50 -63 -92
-11 -11 -36 -42 -57 -68 l-39 -47 254 2 c217 3 253 5 253 18 0 8 12 23 28 33
15 11 27 25 27 33 0 8 6 14 14 14 23 0 46 41 46 80 0 36 58 172 80 185 23 14
22 -6 -3 -82 -14 -43 -28 -104 -32 -136 -7 -57 -9 -59 -67 -100 -48 -34 -56
-43 -39 -45 11 -2 36 8 54 22 42 32 51 33 43 1 l-6 -25 821 0 c706 0 820 2
810 14 -8 10 -9 16 -1 21 6 3 7 11 4 17 -4 6 -2 8 4 4 5 -3 12 -2 14 3 2 6 28
3 63 -6 33 -8 80 -15 105 -16 36 -2 45 1 48 16 4 19 -43 77 -62 77 -6 0 -20 7
-31 16 -17 13 -18 16 -5 24 8 5 23 7 33 4 9 -3 17 -1 17 5 0 6 -4 11 -10 11
-5 0 -10 5 -10 10 0 10 82 -39 88 -52 2 -5 7 -8 12 -8 16 0 30 106 35 258 3
122 7 158 22 182 23 40 43 39 43 -2 1 -27 2 -30 11 -16 7 12 6 24 -1 38 -9 17
-8 21 7 27 10 3 22 8 27 11 5 3 6 -6 3 -19 -3 -13 -2 -31 3 -38 6 -10 -1 -26
-21 -50 -20 -24 -25 -37 -17 -40 21 -7 28 -24 15 -40 -17 -21 -16 -151 2 -151
10 0 12 -11 7 -42 -3 -24 -8 -68 -11 -98 -5 -52 -5 -54 10 -35 18 22 70 121
86 163 10 25 9 25 -9 9 -10 -9 -21 -17 -23 -17 -2 0 -4 25 -4 55 1 30 -2 55
-5 55 -14 0 -9 58 5 64 12 4 14 17 10 63 -10 102 -13 323 -5 318 8 -5 18 27
25 86 3 18 9 37 15 43 5 5 10 20 10 33 0 35 18 27 22 -9 2 -27 7 -33 28 -34
58 -2 60 -3 56 -33 -2 -16 -12 -38 -23 -50 -13 -14 -18 -30 -15 -51 4 -28 22
-43 22 -18 0 6 3 8 7 5 3 -4 15 0 25 10 10 9 18 11 18 5 0 -6 -5 -14 -11 -17
-6 -5 -4 -12 8 -21 11 -8 14 -17 8 -21 -9 -7 -10 -18 -6 -48 3 -19 21 23 25
59 3 20 10 44 15 54 30 50 -2 -130 -42 -238 -66 -178 -205 -470 -237 -500 -10
-8 -27 -32 -39 -52 -31 -52 -4 -52 32 -1 15 21 27 31 27 23 0 -9 -7 -26 -16
-38 l-15 -22 85 0 c77 0 85 2 80 18 -5 16 -5 16 9 0 13 -17 46 -18 436 -18
l422 0 8 23 c5 12 6 28 4 35 -3 6 -1 12 4 12 5 0 9 19 10 42 1 23 7 45 14 49
7 4 9 14 6 22 -7 18 38 108 59 120 8 5 11 14 7 20 -4 7 -1 7 10 -1 9 -8 21
-11 27 -7 8 5 11 -4 10 -26 -3 -51 -1 -61 10 -54 13 8 13 -1 -1 -26 -5 -11
-15 -17 -22 -13 -9 5 -9 3 0 -6 10 -11 10 -17 -3 -31 -10 -11 -12 -19 -5 -24
17 -10 13 -38 -4 -32 -8 4 -17 2 -20 -2 -3 -5 2 -11 10 -15 13 -4 13 -9 0 -40
-8 -20 -15 -37 -15 -40 0 -2 79 -5 175 -6 l175 -1 1 43 c1 24 1 46 0 50 0 4 5
5 13 2 10 -4 12 2 9 20 -4 19 -1 26 11 26 19 0 21 -32 3 -61 -10 -17 -9 -22 6
-33 9 -7 17 -17 17 -21 0 -4 -7 -2 -15 5 -13 10 -15 9 -15 -9 0 -20 5 -21 110
-21 l110 0 0 214 0 215 -25 19 c-27 21 -26 41 3 75 14 15 13 17 -6 17 -12 0
-26 -9 -32 -20 -14 -26 -23 -25 -56 5 -15 14 -34 23 -42 20 -8 -3 -20 -1 -27
5 -7 6 -26 8 -41 5 -55 -12 -108 -9 -99 5 4 6 -1 7 -11 3 -13 -5 -15 -2 -9 18
4 13 14 32 23 42 8 9 12 20 8 25 -5 4 -23 -10 -40 -30 -31 -35 -35 -37 -67
-28 -19 6 -51 11 -71 12 -21 1 -38 5 -38 9 0 4 -20 11 -44 14 -25 4 -47 13
-50 20 -2 7 4 30 14 51 26 50 18 55 -22 12 -36 -39 -49 -38 -113 8 -36 25 -85
37 -103 25 -11 -6 -6 -19 21 -57 38 -53 71 -114 62 -114 -3 0 1 -12 9 -27 19
-38 19 -118 1 -133 -12 -10 -15 -10 -15 1 0 8 -25 75 -56 149 -54 130 -56 138
-52 206 5 70 4 72 -18 70 -13 0 -19 -5 -14 -10 11 -11 1 -36 -14 -36 -7 0 -37
17 -67 39 -30 21 -63 43 -75 49 -19 10 -20 8 -16 -19 2 -16 8 -32 13 -35 5 -3
9 -12 9 -21 0 -28 -26 3 -39 47 -12 42 -80 115 -115 126 -12 3 -45 17 -74 31
-66 30 -76 25 -21 -11 22 -15 38 -30 35 -33 -3 -4 -1 -12 5 -19 5 -7 6 -15 1
-18 -5 -3 -19 8 -30 24 -29 39 -139 113 -158 106 -8 -3 -14 -1 -14 4 0 6 -7
10 -15 10 -12 0 -12 -5 4 -33 10 -17 20 -50 24 -72 6 -38 5 -39 -8 -15 -8 14
-14 32 -15 42 0 9 -14 29 -31 45 -18 15 -44 39 -59 53 -15 14 -30 36 -34 50
-12 44 -39 100 -47 100 -5 0 -15 16 -24 36 -8 19 -22 45 -32 58 -18 22 -18 22
-20 -23 -3 -59 -25 -154 -73 -316 -50 -170 -77 -281 -89 -380 -12 -95 -44
-211 -72 -267 -23 -45 -96 -128 -112 -128 -6 0 3 15 19 32 47 51 64 78 32 49
l-27 -24 23 49 c14 27 39 97 57 156 18 59 34 106 36 104 4 -4 -54 -232 -63
-247 -4 -7 -3 -9 4 -5 18 11 65 169 66 222 1 29 4 50 9 47 4 -2 7 10 7 27 0
37 46 225 94 383 19 64 42 150 51 191 25 126 16 273 -15 226 -5 -8 -10 -36
-10 -61 0 -109 -32 -203 -103 -309 -104 -154 -201 -284 -257 -345 -36 -38 -86
-95 -112 -125 -95 -112 -165 -178 -223 -214 -33 -21 -70 -44 -82 -53 -21 -14
-23 -14 -23 1 0 9 12 21 26 26 14 6 24 16 21 23 -2 6 9 26 25 44 30 31 30 31
10 44 -19 12 -20 15 -6 30 14 15 12 17 -18 23 -30 6 -78 37 -78 50 0 9 97 56
115 56 11 0 13 4 8 13 -4 6 -8 17 -8 22 -1 6 -6 9 -13 7 -7 -1 -29 -5 -50 -8
-20 -3 -54 -10 -76 -15 -24 -7 -42 -7 -48 -1 -6 6 11 11 44 15 41 5 59 13 81
37 15 16 42 38 60 47 l32 16 -28 8 c-16 4 -34 12 -41 18 -7 6 -16 8 -20 4 -15
-16 9 33 28 56 62 74 149 146 189 156 15 4 27 12 27 17 0 6 11 7 24 4 16 -4
26 -1 30 9 8 21 29 19 22 -2 -6 -17 -5 -17 8 0 7 9 16 17 20 17 3 0 58 52 122
116 101 102 117 114 131 102 15 -12 16 -10 9 15 -5 20 -3 27 8 27 9 0 13 6 10
15 -4 8 9 30 31 52 40 41 70 91 61 101 -3 3 -6 -1 -6 -8 0 -7 -2 -11 -5 -8 -8
7 15 47 53 95 35 45 62 102 62 130 0 10 -11 -3 -24 -29 -12 -26 -39 -65 -59
-87 -20 -22 -43 -55 -53 -73 -26 -52 -33 -58 -58 -48 -26 10 -48 -1 -44 -21 2
-8 -7 -15 -19 -17 -13 -2 -23 -8 -23 -14 0 -6 -10 -8 -23 -4 -19 4 -25 0 -35
-26 -9 -25 -14 -29 -25 -19 -12 9 -16 7 -20 -10 -3 -12 -10 -18 -17 -14 -6 4
-17 -1 -25 -11 -11 -16 -15 -17 -31 -4 -16 14 -17 13 -12 -5 3 -11 9 -28 13
-37 9 -22 -8 -24 -25 -3 -12 14 -16 13 -37 -6 -12 -13 -23 -18 -23 -13 0 5 9
17 20 27 24 20 26 47 5 47 -8 0 -15 -7 -15 -15 0 -23 -18 -18 -36 9 -9 15 -21
22 -30 19 -20 -8 -64 38 -64 67 l0 25 -20 -25 c-16 -20 -20 -22 -20 -7 0 9 5
17 10 17 16 0 12 18 -12 53 -29 41 -39 48 -60 41 -11 -3 -18 0 -18 7 0 7 -9 4
-22 -9 -28 -25 -75 -44 -83 -33 -8 15 54 61 82 61 20 0 24 4 20 20 -8 30 12
35 39 9 13 -12 26 -20 29 -17 3 3 -1 11 -10 18 -19 16 -19 40 0 40 8 0 15 -4
15 -10 0 -5 9 -10 20 -10 11 0 20 7 20 15 0 8 -4 15 -10 15 -5 0 -10 5 -10 12
0 6 8 4 19 -6 18 -17 20 -17 40 3 12 12 21 26 21 31 0 6 20 25 45 42 25 18 45
34 45 37 0 3 -26 6 -57 6 -109 0 -192 13 -223 35 -17 12 -30 25 -30 29 0 4
-12 13 -27 20 -53 24 -9 39 172 56 208 21 218 18 311 -70 47 -45 75 -65 89
-63 11 2 19 9 17 17 -1 7 2 19 8 26 20 24 1 82 -37 116 -34 29 -36 30 -55 12
-18 -16 -20 -16 -29 -1 -6 10 -29 18 -68 23 -49 6 -60 11 -70 31 -6 13 -17 24
-26 24 -8 0 -18 0 -22 1 -21 2 -11 -21 12 -27 29 -7 28 -31 -1 -26 -10 2 -27
3 -36 3 -10 0 -18 4 -18 10 0 15 -27 10 -34 -6 -3 -8 -13 -15 -21 -15 -13 0
-15 6 -11 28 6 24 2 29 -36 46 -24 10 -64 19 -90 19 -33 1 -48 5 -48 14 0 7 6
13 14 13 7 0 25 12 40 27 20 19 23 28 14 34 -7 4 -18 3 -25 -3 -9 -7 -13 -7
-13 0 0 6 4 12 9 14 31 12 191 151 212 186 l19 29 -43 12 c-23 7 -57 27 -76
44 -35 33 -34 20 1 -20 11 -11 18 -31 16 -44 -3 -24 -66 -75 -77 -63 -3 4 0 9
6 11 7 3 23 13 35 23 19 15 21 21 11 43 -15 33 -67 60 -116 60 -30 0 -46 -8
-73 -34 -19 -19 -37 -44 -41 -57 -3 -12 -10 -21 -17 -19 -20 7 -18 77 4 132
26 63 17 95 -25 90 -14 -1 -23 0 -20 3 2 3 0 11 -6 19 -6 7 -8 13 -4 13 4 0 1
8 -6 17 -12 14 -12 16 0 8 11 -6 13 -3 8 17 -5 18 -2 28 8 32 8 3 15 10 15 16
0 6 -4 8 -10 5 -13 -8 -13 -2 2 30 10 22 9 28 -2 35 -8 5 -12 11 -10 13 30 24
102 65 123 71 32 8 61 37 82 85 9 20 21 45 26 56 8 16 5 36 -11 78 l-22 57 61
60 c43 42 61 67 61 85 0 30 -14 31 -57 5 -29 -17 -39 -18 -95 -8 -35 6 -68 14
-74 19 -14 11 -177 39 -231 39 -24 0 -54 6 -66 14 -19 12 -28 11 -67 -3z m-53
-167 c-3 -3 -12 -4 -19 -1 -8 3 -5 6 6 6 11 1 17 -2 13 -5z m236 -81 c-7 -2
-19 -2 -25 0 -7 3 -2 5 12 5 14 0 19 -2 13 -5z m-213 -47 c0 -9 -61 -48 -67
-43 -3 3 10 15 28 26 36 22 39 23 39 17z m460 -111 c0 -25 -18 -25 -22 -1 -4
17 -1 23 9 19 7 -3 13 -11 13 -18z m-165 -875 c-3 -5 -11 -10 -16 -10 -6 0 -7
5 -4 10 3 6 11 10 16 10 6 0 7 -4 4 -10z m-42 -182 c27 -13 37 -31 15 -27 -19
3 -68 -19 -68 -31 0 -5 -4 -10 -10 -10 -14 0 -12 54 2 68 15 15 27 15 61 0z
m87 -308 c0 -19 -5 -30 -14 -30 -19 0 -26 21 -14 43 14 27 28 20 28 -13z m-46
-16 c19 -18 20 -30 6 -39 -15 -9 -40 14 -40 36 0 23 13 24 34 3z m252 -31
c-10 -10 -19 5 -10 18 6 11 8 11 12 0 2 -7 1 -15 -2 -18z m-48 -35 c-6 -18
-28 -21 -28 -4 0 9 7 16 16 16 9 0 14 -5 12 -12z m47 -98 c3 -5 1 -10 -4 -10
-6 0 -11 5 -11 10 0 6 2 10 4 10 3 0 8 -4 11 -10z m162 -42 c-3 -7 -5 -2 -5
12 0 14 2 19 5 13 2 -7 2 -19 0 -25z m-313 -14 c10 -25 -1 -29 -14 -5 -6 12
-7 21 -1 21 5 0 12 -7 15 -16z m426 -56 c0 -5 -4 -8 -10 -8 -5 0 -10 10 -10
23 0 18 2 19 10 7 5 -8 10 -18 10 -22z m110 -20 c0 -16 -3 -19 -11 -11 -6 6
-8 16 -5 22 11 17 16 13 16 -11z m-180 -4 c0 -8 -4 -12 -10 -9 -5 3 -10 10
-10 16 0 5 5 9 10 9 6 0 10 -7 10 -16z m105 -14 c3 -5 1 -10 -4 -10 -6 0 -11
5 -11 10 0 6 2 10 4 10 3 0 8 -4 11 -10z m761 -183 c9 -16 13 -31 10 -35 -3
-3 -7 -3 -8 -1 -2 2 -14 24 -27 49 -18 34 -20 42 -7 31 10 -8 24 -28 32 -44z
m160 -115 c-11 -10 -15 4 -8 28 l7 25 3 -23 c2 -13 1 -26 -2 -30z m-189 -14
c-3 -8 -6 -5 -6 6 -1 11 2 17 5 13 3 -3 4 -12 1 -19z m223 -28 c0 -36 -64
-238 -126 -397 -46 -120 -130 -300 -144 -308 -4 -3 -11 -21 -14 -40 -7 -35
-20 -46 -29 -22 -6 16 32 121 98 272 28 66 80 206 115 310 34 105 67 196 72
203 17 20 28 14 28 -18z m-150 -27 c0 -77 -92 -358 -179 -546 -17 -37 -34 -88
-38 -113 -4 -29 -9 -42 -16 -35 -15 15 -15 73 0 110 7 18 11 37 8 41 -3 4 2
21 10 36 8 16 15 33 15 37 0 5 12 34 26 65 27 60 31 68 62 142 25 59 49 135
58 185 15 84 54 140 54 78z m-1655 -13 c3 -5 1 -10 -4 -10 -6 0 -11 5 -11 10
0 6 2 10 4 10 3 0 8 -4 11 -10z m1235 -84 c0 -3 -4 -8 -10 -11 -5 -3 -10 -1
-10 4 0 6 5 11 10 11 6 0 10 -2 10 -4z m-580 -326 c0 -5 -2 -10 -4 -10 -3 0
-8 5 -11 10 -3 6 -1 10 4 10 6 0 11 -4 11 -10z m-30 -10 c0 -5 -2 -10 -4 -10
-3 0 -8 5 -11 10 -3 6 -1 10 4 10 6 0 11 -4 11 -10z m-23 -36 c-9 -9 -28 6
-21 18 4 6 10 6 17 -1 6 -6 8 -13 4 -17z m-1396 -47 c-12 -19 -29 -41 -38 -48
-19 -15 -18 -13 33 66 25 39 29 21 5 -18z m1366 17 c-9 -9 -28 6 -21 18 4 6
10 6 17 -1 6 -6 8 -13 4 -17z m-32 -15 c11 -17 -1 -21 -15 -4 -8 9 -8 15 -2
15 6 0 14 -5 17 -11z m-25 -29 c0 -5 -4 -10 -9 -10 -6 0 -13 5 -16 10 -3 6 1
10 9 10 9 0 16 -4 16 -10z m-1606 -100 c-28 -52 -64 -92 -64 -71 0 18 47 106
67 126 28 29 27 0 -3 -55z m3976 30 c0 -5 -4 -10 -10 -10 -5 0 -10 5 -10 10 0
6 5 10 10 10 6 0 10 -4 10 -10z m-2984 -108 c-4 -3 -23 11 -42 33 -57 66 -59
84 -4 27 29 -29 50 -56 46 -60z m2607 87 c4 -16 3 -18 -9 -8 -7 6 -11 15 -8
20 8 13 11 11 17 -12z m313 -16 c-11 -11 -17 4 -9 23 7 18 8 18 11 1 2 -10 1
-21 -2 -24z m-316 -33 c0 -5 -2 -10 -4 -10 -3 0 -8 5 -11 10 -3 6 -1 10 4 10
6 0 11 -4 11 -10z m-904 -75 c-4 -14 -11 -25 -16 -25 -13 0 -13 16 1 42 14 26
23 16 15 -17z"/>
<path d="M2881 3190 c0 -27 9 -65 24 -95 14 -27 25 -64 25 -81 0 -40 34 -84
66 -84 19 0 24 -5 24 -24 0 -18 8 -27 31 -35 18 -6 40 -11 49 -11 10 0 48 -14
85 -31 58 -26 72 -29 98 -20 26 9 36 7 73 -14 51 -30 64 -31 64 -6 0 11 5 23
10 26 16 10 11 55 -10 90 -11 18 -39 45 -62 60 -24 16 -49 37 -56 47 -7 10
-22 18 -33 18 -22 0 -26 18 -4 26 22 9 18 24 -5 24 -23 0 -26 10 -8 28 9 9 8
15 -8 27 -22 17 -44 19 -44 5 0 -5 5 -10 12 -10 6 0 9 -2 6 -5 -5 -5 -51 12
-99 36 -38 18 -86 20 -126 4 -50 -20 -73 -11 -96 37 l-17 33 1 -45z m439 -214
c34 -22 98 -121 87 -133 -3 -2 -18 14 -33 37 -17 25 -49 54 -81 72 -29 16 -53
34 -53 39 0 17 46 9 80 -15z"/>
<path d="M1395 2723 c-17 -227 -7 -382 25 -411 48 -44 49 -44 43 -5 -4 20 -17
55 -29 77 -19 33 -24 56 -24 116 0 65 6 89 41 178 l42 103 -29 30 c-52 54 -60
43 -69 -88z"/>
<path d="M3125 2810 c8 -13 85 -63 90 -58 2 2 -19 18 -47 36 -28 19 -47 29
-43 22z"/>
<path d="M3647 2763 c-4 -3 -7 -13 -7 -22 1 -13 3 -13 11 2 11 19 8 33 -4 20z"/>
<path d="M3681 2665 c-17 -20 -31 -40 -31 -45 0 -4 -3 -17 -6 -27 -6 -15 -4
-16 7 -5 20 19 37 14 42 -10 3 -22 4 -21 16 6 17 42 26 116 13 116 -5 0 -24
-16 -41 -35z"/>
<path d="M1519 2626 c-12 -13 -32 -27 -44 -30 -39 -10 -60 -109 -34 -159 20
-39 108 -119 126 -115 24 5 22 71 -3 99 -23 25 -23 98 1 156 28 69 -2 100 -46
49z"/>
<path d="M4746 2568 c3 -5 -2 -8 -10 -8 -12 0 -15 -9 -13 -32 2 -18 0 -48 -4
-65 -4 -21 -3 -31 3 -27 6 4 8 -7 4 -26 -10 -66 89 -108 142 -61 23 20 31 47
10 35 -10 -6 -10 -4 -2 7 5 8 11 46 12 86 2 93 -8 105 -88 101 -32 -1 -56 -6
-54 -10z"/>
<path d="M1920 2550 c0 -5 7 -10 15 -10 8 0 15 5 15 10 0 6 -7 10 -15 10 -8 0
-15 -4 -15 -10z"/>
<path d="M3617 2443 c-7 -36 -7 -133 -1 -133 14 0 31 68 27 104 -7 52 -19 66
-26 29z"/>
<path d="M2875 2352 c-68 -42 -70 -78 -6 -95 28 -7 32 -12 28 -33 -5 -31 15
-32 43 -2 13 14 20 34 19 57 -2 86 -27 108 -84 73z"/>
<path d="M1607 2167 c-10 -16 -27 -27 -39 -27 -16 0 -19 -3 -11 -11 7 -7 25
-8 51 -2 40 8 40 8 28 37 l-12 29 -17 -26z"/>
<path d="M1686 2144 c-8 -21 -8 -24 3 -24 5 0 11 9 14 20 6 24 -8 27 -17 4z"/>
<path d="M2787 2144 c-13 -13 -7 -61 8 -74 24 -20 28 -5 13 40 -7 23 -17 38
-21 34z"/>
<path d="M2700 2121 c-13 -26 6 -61 34 -61 16 0 17 3 8 12 -7 7 -12 22 -12 34
0 31 -17 39 -30 15z"/>
<path d="M1662 2050 c0 -14 2 -19 5 -12 2 6 2 18 0 25 -3 6 -5 1 -5 -13z"/>
<path d="M3516 2003 c-22 -22 21 -30 74 -13 22 7 21 8 -11 7 -20 0 -40 3 -46
6 -6 4 -13 4 -17 0z"/>
<path d="M1681 1974 c0 -11 3 -14 6 -6 3 7 2 16 -1 19 -3 4 -6 -2 -5 -13z"/>
<path d="M1840 1853 c0 -53 10 -83 27 -83 9 0 12 7 9 18 -3 9 -8 34 -12 55 -9
51 -24 57 -24 10z"/>
<path d="M2770 1372 c0 -12 19 -26 26 -19 2 2 -2 10 -11 17 -9 8 -15 8 -15 2z"/>
<path d="M2935 1030 c-3 -5 -1 -10 4 -10 6 0 11 5 11 10 0 6 -2 10 -4 10 -3 0
-8 -4 -11 -10z"/>
<path d="M4060 900 c19 -11 40 -19 45 -19 6 0 -6 8 -25 19 -19 11 -39 19 -45
19 -5 0 6 -8 25 -19z"/>
<path d="M3540 890 c0 -5 5 -10 10 -10 6 0 10 5 10 10 0 6 -4 10 -10 10 -5 0
-10 -4 -10 -10z"/>
<path d="M3612 688 c-7 -7 -12 -19 -12 -28 0 -8 -7 -26 -16 -38 -9 -13 -13
-31 -9 -43 9 -28 20 -13 41 59 17 56 16 70 -4 50z"/>
<path d="M2620 560 c0 -5 7 -10 15 -10 8 0 15 5 15 10 0 6 -7 10 -15 10 -8 0
-15 -4 -15 -10z"/>
<path d="M3556 515 c-3 -9 -6 -22 -5 -28 0 -7 5 -1 10 12 5 13 8 26 5 28 -2 2
-6 -3 -10 -12z"/>
<path d="M3311 304 c0 -11 3 -14 6 -6 3 7 2 16 -1 19 -3 4 -6 -2 -5 -13z"/>
<path d="M3306 258 c-13 -67 -27 -179 -22 -186 10 -17 -23 -50 -44 -45 -11 3
-20 1 -20 -5 0 -6 -8 -13 -17 -15 -10 -3 7 -5 38 -6 45 -1 59 3 65 17 7 14 13
262 7 262 -2 0 -5 -10 -7 -22z"/>
</g>
</svg>
